<?xml version="1.0" encoding="UTF-8"?> <svg xmlns="http://www.w3.org/2000/svg" width="170" height="131"><g fill="none" fill-rule="evenodd"><path fill="#3BC0CB" d="M111.007 5.504c106.167-39.823 51.852 150.482-32.52 122.048-24.66-8.31-132.266-59.836-44.782-94.034C62.49 22.266 64.139 23.083 111.007 5.504"></path><path fill="#FFF" d="M36.743 58.363l4.535 8.455 4.534-8.455h6.744L41.278 78.066 30 58.363h6.743zm30.307 0l4.535 8.455 4.534-8.455h6.744L71.585 78.066 60.307 58.363h6.743zm-7.712 0v19.393h-5.852V58.363h5.852zm35.617 9.696c0-2.676-1.783-4.538-4.186-4.538-2.402 0-4.185 1.862-4.185 4.538s1.783 4.538 4.185 4.538c2.403 0 4.186-1.862 4.186-4.538m-4.186-10.006c5.581 0 10.077 4.499 10.077 10.006 0 5.508-4.496 10.007-10.077 10.007-5.58 0-10.076-4.5-10.076-10.007s4.496-10.006 10.076-10.006zm20.928 0c5.581 0 10.077 4.499 10.077 10.006 0 5.508-4.496 10.007-10.077 10.007-5.58 0-10.076-4.5-10.076-10.007s4.495-10.006 10.076-10.006zm0 5.468c-2.403 0-4.185 1.862-4.185 4.538s1.782 4.538 4.185 4.538c2.403 0 4.186-1.862 4.186-4.538s-1.783-4.538-4.186-4.538zM56.121 47c2.403 0 4.186 1.862 4.186 4.538s-1.783 4.538-4.186 4.538-4.185-1.862-4.185-4.538S53.718 47 56.12 47z"></path></g></svg> 